<?xml version="1.0" encoding="UTF-8"?>
<svg id="Layer_1" data-name="Layer 1" xmlns="http://www.w3.org/2000/svg" xmlns:xlink="http://www.w3.org/1999/xlink" viewBox="0 0 841.89 595.28">
  <defs>
    <style>
      .cls-1 {
        fill: #00a0c1;
      }

      .cls-2 {
        fill: #7650a1;
      }

      .cls-3 {
        fill: url(#linear-gradient);
      }
    </style>
    <linearGradient id="linear-gradient" x1="179.77" y1="297.07" x2="73.73" y2="297.69" gradientUnits="userSpaceOnUse">
      <stop offset="0" stop-color="#00a0c1"/>
      <stop offset=".15" stop-color="#1591bb"/>
      <stop offset=".54" stop-color="#496ead"/>
      <stop offset=".84" stop-color="#6958a4"/>
      <stop offset="1" stop-color="#7650a1"/>
    </linearGradient>
  </defs>
  <path class="cls-1" d="M221.64,341.65v-88.7h35.23c5.41,0,10.24,1.08,14.51,3.23,4.26,2.15,7.6,5.2,10.01,9.12,2.41,3.93,3.61,8.64,3.61,14.13v1.65c0,5.49-1.25,10.22-3.74,14.19-2.49,3.97-5.85,7.01-10.07,9.12-4.23,2.11-9,3.17-14.32,3.17h-21.54v34.09h-13.69ZM235.33,295.14h20.15c4.82,0,8.66-1.27,11.53-3.8,2.87-2.53,4.31-6,4.31-10.39v-1.27c0-4.48-1.44-7.98-4.31-10.52-2.87-2.53-6.72-3.8-11.53-3.8h-20.15v29.78Z"/>
  <path class="cls-1" d="M291.43,341.65v-65.1h13.27v7.93h.44c1.05-2.71,2.74-4.71,5.06-5.98,2.32-1.27,6.86-1.91,10.27-1.91h7.75v12.22h-8.28c-4.38,0-7.97,1.21-10.78,3.61-2.8,2.41-4.21,6.11-4.21,11.11v38.11h-13.54Z"/>
  <path class="cls-1" d="M363.86,341.65c-6.16,0-11.64-1.27-16.43-3.81-4.79-2.54-8.56-6.18-11.3-10.93-2.75-4.75-4.12-10.37-4.12-16.86v-1.87c0-6.5,1.37-12.09,4.12-16.8,2.75-4.7,6.51-8.35,11.3-10.93,4.79-2.58,10.26-3.87,16.43-3.87s11.66,1.29,16.49,3.87c4.83,2.58,8.62,6.23,11.37,10.93,2.75,4.71,4.12,10.3,4.12,16.8v1.87c0,6.5-1.37,12.12-4.12,16.86-2.75,4.75-6.54,8.39-11.37,10.93-4.83,2.54-10.33,3.81-16.49,3.81ZM363.86,330.16c5.66,0,10.26-1.81,13.8-5.43,3.54-3.62,5.31-8.64,5.31-15.05v-1.12c0-6.41-1.75-11.43-5.25-15.05-3.5-3.62-8.12-5.43-13.86-5.43s-10.14,1.81-13.68,5.43c-3.54,3.62-5.31,8.64-5.31,15.05v1.12c0,6.41,1.77,11.43,5.31,15.05,3.54,3.62,8.1,5.43,13.68,5.43Z"/>
  <path class="cls-1" d="M430.36,341.65c-5.05,0-9.72-1.24-14.02-3.72-4.3-2.48-7.76-6.06-10.36-10.74-2.61-4.67-3.91-10.32-3.91-16.94v-1.86c0-6.54,1.28-12.16,3.85-16.88,2.56-4.72,6-8.32,10.3-10.8,4.3-2.48,9.02-3.72,14.15-3.72,3.97,0,7.3.5,9.99,1.49,2.69.99,5.85,2.26,7.58,3.79,1.74,1.53,4,3.12,4.92,4.78h.1v-34.01h12.78v86.88h-12.54v-8.69h-.1c-1.57,2.65-4.9,5.05-8.08,7.2-3.19,2.15-8.7,3.23-14.66,3.23ZM433.96,330.48c5.54,0,10.12-1.78,13.71-5.34,3.6-3.56,5.4-8.64,5.4-15.27v-1.12c0-6.54-1.78-11.58-5.34-15.14-3.56-3.56-8.15-5.34-13.78-5.34s-9.99,1.78-13.59,5.34c-3.6,3.56-5.4,8.61-5.4,15.14v1.12c0,6.62,1.8,11.71,5.4,15.27,3.6,3.56,8.13,5.34,13.59,5.34Z"/>
  <path class="cls-1" d="M499.9,341.65c-4.84,0-11.46-1.08-15.26-3.24-3.8-2.16-6.78-5.23-8.94-9.2-2.16-3.97-3.24-8.73-3.24-14.26v-38.36h13.35v37.45c0,5.53,1.38,9.61,4.15,12.25,2.76,2.64,6.61,3.95,11.53,3.95,5.44,0,9.83-1.83,13.15-5.51,3.32-3.67,4.99-8.96,4.99-15.88v-32.27h13.35v63.89h-13.09v-9.59h.23c-1.21,2.59-3.37,5.03-6.48,7.32-3.11,2.29-7.69,3.43-13.74,3.43Z"/>
  <path class="cls-1" d="M570.81,341.65c-5.91,0-11.26-1.25-16.05-3.75-4.79-2.5-8.58-6.12-11.37-10.87-2.79-4.75-4.18-10.45-4.18-17.11v-1.62c0-6.66,1.39-12.34,4.18-17.05,2.79-4.7,6.58-8.33,11.37-10.87,4.79-2.54,10.14-3.81,16.05-3.81s10.95,1.08,15.11,3.25c4.16,2.17,7.82,5.04,10.36,8.62,2.54,3.58,4.18,7.54,4.93,11.87l-12.49,2.62c-.42-2.75-1.29-5.25-2.62-7.49-1.33-2.25-3.51-4.04-5.93-5.37-2.42-1.33-5.45-2-9.12-2s-6.81.81-9.68,2.44c-2.87,1.62-5.14,3.96-6.81,6.99-1.67,3.04-2.5,6.73-2.5,11.05v1.12c0,4.33.83,8.04,2.5,11.12,1.66,3.08,3.93,5.41,6.81,6.99,2.87,1.58,6.1,2.37,9.68,2.37,5.41,0,9.53-1.39,12.37-4.18,2.83-2.79,4.62-6.35,5.37-10.68l12.49,2.87c-1,4.25-2.77,8.16-5.31,11.74-2.54,3.58-5.89,6.43-10.06,8.56-4.16,2.12-9.2,3.18-15.11,3.18Z"/>
  <path class="cls-1" d="M607.51,341.65v-88.7h13.05v50.56h.1l27.12-26.77h17.36l-32.16,32.72,32.57,32.19h-17.23l-27.65-25.98h-.1v25.98h-13.05Z"/>
  <path class="cls-2" d="M672.45,341.65l25.34-88.7h24.08l25.22,88.7h-14.07l-6.8-27.71h-32.78l-6.8,27.71h-14.19ZM696.87,301.26h25.94l-13.01-39.83h-.06l-12.87,39.83Z"/>
  <path class="cls-2" d="M754.1,341.65v-88.7h13.69v88.7h-13.69Z"/>
  <path class="cls-3" d="M166.33,230.88c-12.99-13.37-30.99-12.79-47.13-13.08-9.16-.02-18.24,0-27.58-.01-3.31.01-6.51-.03-9.79.07-3.61,0-7.76.7-7.6,5.91-.26,43.29-.07,103.87-.06,146.43-.16,2.53.48,5.9,2.47,7.07,2.8,2.64,19.8-18.02,27.46-24.04,1.3-1.21,2.62-2.43,3.78-3.77,3-3.37,4.77-8.12,5.08-13.03v-.1c.52-6.21-.22-14.2,2.6-19.25,1.74-2.42,4.59-2.69,7.12-3.02,18.39-.3,38.64-1.55,50.23-21.65,10.99-18.66,8.15-47-6.57-61.52ZM110.15,252.4c-1.37-1.06-3.33-1.11-4.73-2.12,1.79-1.36,4.55-1.16,5.76-3.36.33-.6,1.43-4.22,1.81-4.22,1.31,1.91,1.08,4.5,3.36,5.76.91.51,3.3,1.01,3.89,1.49.22.18.18.31.17.56-1.4.62-3.9,1.05-4.97,2.12-1.03,1.04-1.5,3.35-2.13,4.72-.26.57-.48.47-.74-.07-.79-1.65-.88-3.7-2.43-4.91ZM118.83,286.4c-.86.83-.9,2.38-1.62,3.32-.23,0-.92-2.31-1.12-2.69-.82-1.5-2.5-1.29-3.75-2.18,0-.23,2.22-.88,2.59-1.08,1.58-.82,1.43-2.47,2.28-3.79.89,1.25.68,2.93,2.18,3.75.38.21,2.68.89,2.69,1.12-.92.71-2.41.75-3.25,1.55ZM153.29,267.67c-3.76,2.18-9.5,2.57-12.98,5.55-4.35,3.72-4.16,9.7-6.71,14.15-.63,1.09-1.17,1.08-1.8,0-2.56-4.42-2.4-10.45-6.71-14.14-3.49-2.98-9.22-3.37-12.98-5.55-1.08-.63-1.09-1.17,0-1.8,5.61-3.22,12.4-2.2,15.86-9.3.77-1.57,3.57-10.87,4.44-11.13.72-.22.91.24,1.2.74,1.84,3.14,2.45,8.45,4.5,11.72,3.47,5.53,10.35,5.19,15.19,7.97,1.09.63,1.08,1.17,0,1.8Z"/>
</svg>